M48
; DRILL file {KiCad (6.0.8)} date Mon Jul 24 16:34:00 2023
; FORMAT={-:-/ absolute / metric / decimal}
; #@! TF.CreationDate,2023-07-24T16:34:00+02:00
; #@! TF.GenerationSoftware,Kicad,Pcbnew,(6.0.8)
; #@! TF.FileFunction,Plated,1,2,PTH
FMAT,2
METRIC
; #@! TA.AperFunction,Plated,PTH,ViaDrill
T1C0.400
; #@! TA.AperFunction,Plated,PTH,ComponentDrill
T2C0.700
; #@! TA.AperFunction,Plated,PTH,ComponentDrill
T3C0.800
; #@! TA.AperFunction,Plated,PTH,ComponentDrill
T4C0.900
; #@! TA.AperFunction,Plated,PTH,ComponentDrill
T5C1.000
; #@! TA.AperFunction,Plated,PTH,ComponentDrill
T6C1.300
; #@! TA.AperFunction,Plated,PTH,ComponentDrill
T7C2.000
%
G90
G05
T1
X30.0Y-42.0
X42.5Y-42.0
X52.3Y-104.4
X52.325Y-74.5
X55.5Y-42.0
X66.54Y-132.08
X68.0Y-41.776
X68.5Y-55.5
X76.5Y-112.0
X85.5Y-112.0
X100.8Y-67.0
X108.1Y-67.1
T2
X59.0Y-67.0
X59.0Y-82.0
X59.0Y-97.0
X59.0Y-112.0
X59.0Y-127.0
X74.0Y-67.0
X74.0Y-82.0
X74.0Y-97.0
X74.0Y-112.0
X74.0Y-127.0
X89.0Y-67.0
X89.0Y-82.0
X89.0Y-97.0
X89.0Y-112.0
X89.0Y-127.0
X104.0Y-67.0
X104.0Y-82.0
X104.0Y-97.0
X104.0Y-112.0
X104.0Y-127.0
X119.0Y-67.0
X119.0Y-82.0
X119.0Y-97.0
X119.0Y-112.0
X119.0Y-127.0
X134.0Y-67.0
X134.0Y-82.0
X134.0Y-97.0
X134.0Y-112.0
X134.0Y-127.0
T3
X117.275Y-39.5
X119.0Y-52.0
X120.775Y-39.5
X127.0Y-52.0
T5
X34.75Y-63.0
X34.75Y-67.0
X34.75Y-71.0
X34.75Y-93.0
X34.75Y-97.0
X34.75Y-101.0
X34.75Y-123.0
X34.75Y-127.0
X34.75Y-131.0
X125.05Y-38.13
X125.05Y-42.13
X125.05Y-46.13
T7
X92.75Y-47.0
X94.75Y-41.2
X100.25Y-47.0
X107.75Y-47.0
X109.75Y-41.2
X115.25Y-47.0
T4
X65.025Y-74.5G85X65.425Y-74.5
G05
X65.025Y-104.5G85X65.425Y-104.5
G05
X65.025Y-127.0G85X65.425Y-127.0
G05
X67.465Y-74.5G85X68.065Y-74.5
G05
X67.465Y-104.5G85X68.065Y-104.5
G05
X67.465Y-127.0G85X68.065Y-127.0
G05
X109.775Y-55.5G85X110.175Y-55.5
G05
X112.215Y-55.5G85X112.815Y-55.5
G05
X125.025Y-67.0G85X125.425Y-67.0
G05
X125.025Y-82.0G85X125.425Y-82.0
G05
X125.025Y-97.0G85X125.425Y-97.0
G05
X125.025Y-119.5G85X125.425Y-119.5
G05
X127.465Y-67.0G85X128.065Y-67.0
G05
X127.465Y-82.0G85X128.065Y-82.0
G05
X127.465Y-97.0G85X128.065Y-97.0
G05
X127.465Y-119.5G85X128.065Y-119.5
G05
T6
X24.25Y-62.5G85X24.25Y-62.5
G05
X24.25Y-71.5G85X24.25Y-71.5
G05
X24.25Y-92.5G85X24.25Y-92.5
G05
X24.25Y-101.5G85X24.25Y-101.5
G05
X24.25Y-122.5G85X24.25Y-122.5
G05
X24.25Y-131.5G85X24.25Y-131.5
G05
X135.55Y-37.63G85X135.55Y-37.63
G05
X135.55Y-46.63G85X135.55Y-46.63
G05
T0
M30
