G04 #@! TF.GenerationSoftware,KiCad,Pcbnew,(6.0.8)*
G04 #@! TF.CreationDate,2023-07-24T16:33:47+02:00*
G04 #@! TF.ProjectId,pisynthInv,70697379-6e74-4684-996e-762e6b696361,rev?*
G04 #@! TF.SameCoordinates,Original*
G04 #@! TF.FileFunction,Legend,Bot*
G04 #@! TF.FilePolarity,Positive*
%FSLAX46Y46*%
G04 Gerber Fmt 4.6, Leading zero omitted, Abs format (unit mm)*
G04 Created by KiCad (PCBNEW (6.0.8)) date 2023-07-24 16:33:47*
%MOMM*%
%LPD*%
G01*
G04 APERTURE LIST*
%ADD10C,2.000000*%
%ADD11C,1.800000*%
%ADD12R,1.800000X1.800000*%
%ADD13C,1.500000*%
%ADD14C,1.200000*%
%ADD15C,2.800000*%
%ADD16C,1.600000*%
%ADD17R,1.700000X3.500000*%
G04 APERTURE END LIST*
%LPC*%
D10*
X134000000Y-97000000D03*
X59000000Y-97000000D03*
D11*
X24250000Y-122500000D03*
X24250000Y-131500000D03*
D12*
X34750000Y-131000000D03*
D11*
X34750000Y-127000000D03*
X34750000Y-123000000D03*
X24250000Y-101500000D03*
X24250000Y-92500000D03*
D12*
X34750000Y-101000000D03*
D11*
X34750000Y-97000000D03*
X34750000Y-93000000D03*
D12*
X125225000Y-67000000D03*
D11*
X127765000Y-67000000D03*
D10*
X74000000Y-127000000D03*
D13*
X96550000Y-36900000D03*
D14*
X96550000Y-45700000D03*
D15*
X94750000Y-41200000D03*
X92750000Y-47000000D03*
X100250000Y-47000000D03*
D10*
X119000000Y-82000000D03*
X119000000Y-97000000D03*
X134000000Y-127000000D03*
X59000000Y-67000000D03*
X104000000Y-127000000D03*
X119000000Y-112000000D03*
D13*
X111550000Y-36900000D03*
D14*
X111550000Y-45700000D03*
D15*
X109750000Y-41200000D03*
X107750000Y-47000000D03*
X115250000Y-47000000D03*
D12*
X65225000Y-127000000D03*
D11*
X67765000Y-127000000D03*
D12*
X109975000Y-55500000D03*
D11*
X112515000Y-55500000D03*
D10*
X134000000Y-82000000D03*
X74000000Y-97000000D03*
X134000000Y-67000000D03*
D11*
X24250000Y-62500000D03*
X24250000Y-71500000D03*
D12*
X34750000Y-71000000D03*
D11*
X34750000Y-67000000D03*
X34750000Y-63000000D03*
D10*
X74000000Y-82000000D03*
X104000000Y-67000000D03*
D12*
X65225000Y-74500000D03*
D11*
X67765000Y-74500000D03*
D10*
X89000000Y-112000000D03*
X89000000Y-127000000D03*
X59000000Y-127000000D03*
D12*
X125225000Y-97000000D03*
D11*
X127765000Y-97000000D03*
D10*
X104000000Y-112000000D03*
D12*
X125225000Y-119500000D03*
D11*
X127765000Y-119500000D03*
D10*
X89000000Y-97000000D03*
X59000000Y-112000000D03*
X119000000Y-127000000D03*
X134000000Y-112000000D03*
X119000000Y-67000000D03*
D12*
X65225000Y-104500000D03*
D11*
X67765000Y-104500000D03*
X135550000Y-37630000D03*
X135550000Y-46630000D03*
D12*
X125050000Y-38130000D03*
D11*
X125050000Y-42130000D03*
X125050000Y-46130000D03*
D10*
X74000000Y-67000000D03*
X89000000Y-67000000D03*
X89000000Y-82000000D03*
D16*
X120775000Y-39500000D03*
X117275000Y-39500000D03*
X127000000Y-52000000D03*
X119000000Y-52000000D03*
D10*
X74000000Y-112000000D03*
X104000000Y-97000000D03*
X59000000Y-82000000D03*
D12*
X125225000Y-82000000D03*
D11*
X127765000Y-82000000D03*
D10*
X104000000Y-82000000D03*
D17*
X24370000Y-39210000D03*
X26910000Y-39210000D03*
X29450000Y-39210000D03*
X31990000Y-39210000D03*
X34530000Y-39210000D03*
X37070000Y-39210000D03*
X39610000Y-39210000D03*
X42150000Y-39210000D03*
X44690000Y-39210000D03*
X47230000Y-39210000D03*
X49770000Y-39210000D03*
X52310000Y-39210000D03*
X54850000Y-39210000D03*
X57390000Y-39210000D03*
X59930000Y-39210000D03*
X62470000Y-39210000D03*
X65010000Y-39210000D03*
X67550000Y-39210000D03*
X70090000Y-39210000D03*
X72630000Y-39210000D03*
X72630000Y-58790000D03*
X70090000Y-58790000D03*
X67550000Y-58790000D03*
X65010000Y-58790000D03*
X62470000Y-58790000D03*
X59930000Y-58790000D03*
X57390000Y-58790000D03*
X54850000Y-58790000D03*
X52310000Y-58790000D03*
X49770000Y-58790000D03*
X47230000Y-58790000D03*
X44690000Y-58790000D03*
X42150000Y-58790000D03*
X39610000Y-58790000D03*
X37070000Y-58790000D03*
X34530000Y-58790000D03*
X31990000Y-58790000D03*
X29450000Y-58790000D03*
X26910000Y-58790000D03*
X24370000Y-58790000D03*
M02*
